<svg width="25" height="25" viewBox="0 0 25 25" fill="none" xmlns="http://www.w3.org/2000/svg">
<path d="M3.59961 6.5H5.59961H21.5996" stroke="stroke-current" stroke-width="2" stroke-linecap="round" stroke-linejoin="round"/>
<path d="M8.59961 6.5V4.5C8.59961 3.96957 8.81032 3.46086 9.1854 3.08579C9.56047 2.71071 10.0692 2.5 10.5996 2.5H14.5996C15.13 2.5 15.6387 2.71071 16.0138 3.08579C16.3889 3.46086 16.5996 3.96957 16.5996 4.5V6.5M19.5996 6.5V20.5C19.5996 21.0304 19.3889 21.5391 19.0138 21.9142C18.6387 22.2893 18.13 22.5 17.5996 22.5H7.59961C7.06918 22.5 6.56047 22.2893 6.1854 21.9142C5.81032 21.5391 5.59961 21.0304 5.59961 20.5V6.5H19.5996Z" stroke="stroke-current" stroke-width="2" stroke-linecap="round" stroke-linejoin="round"/>
<path d="M10.5996 11.5V17.5" stroke="stroke-current" stroke-width="2" stroke-linecap="round" stroke-linejoin="round"/>
<path d="M14.5996 11.5V17.5" stroke="stroke-current" stroke-width="2" stroke-linecap="round" stroke-linejoin="round"/>
</svg>
