<svg width="196" height="60" viewBox="0 0 196 60" fill="none" xmlns="http://www.w3.org/2000/svg">
<path d="M61.4805 29H58.293L65.4062 12.2422H68.7461L76.0117 29H72.6719L70.7617 24.4297H65.1953L66.2617 21.7344H69.6367L67 15.4414L61.4805 29ZM80.875 12.2422V14.7031H77.7695V12.2422H80.875ZM80.875 16.6953V29H77.7695V16.6953H80.875ZM83.8164 29V16.6953H86.2188L86.6055 18.2656C87.6836 17.2188 88.8242 16.6953 90.0273 16.6953V19.2031C88.8711 19.2031 87.8359 19.6836 86.9219 20.6445V29H83.8164ZM97.3516 28.9766V12.2422H104.969C108.391 12.2422 110.102 13.7383 110.102 16.7305C110.102 18.7539 108.77 20.4297 106.105 21.7578L111.414 29H107.5L102.402 21.6992V20.2812C105.371 19.7734 106.855 18.6211 106.855 16.8242C106.855 15.5898 106.16 14.9727 104.77 14.9727H100.516V28.9766H97.3516ZM123.672 16.6953V29H121.246L120.871 27.4297C119.457 28.4766 117.957 29 116.371 29C113.855 29 112.598 27.5117 112.598 24.5352V16.6953H115.703V24.4531C115.703 25.8125 116.297 26.4922 117.484 26.4922C118.492 26.4922 119.52 26.0898 120.566 25.2852V16.6953H123.672ZM129.719 25.7891C130.492 26.2109 131.324 26.4219 132.215 26.4219C134.066 26.4219 134.992 25.1211 134.992 22.5195C134.992 20.3086 133.969 19.2031 131.922 19.2031C131.039 19.2031 130.305 19.2578 129.719 19.3672V25.7891ZM126.613 17.1992C128.246 16.8633 129.973 16.6953 131.793 16.6953C135.973 16.6953 138.062 18.6445 138.062 22.543C138.062 26.8477 136.117 29 132.227 29C131.398 29 130.562 28.8047 129.719 28.4141V33.4531H126.613V17.1992ZM143.523 25.7891C144.297 26.2109 145.129 26.4219 146.02 26.4219C147.871 26.4219 148.797 25.1211 148.797 22.5195C148.797 20.3086 147.773 19.2031 145.727 19.2031C144.844 19.2031 144.109 19.2578 143.523 19.3672V25.7891ZM140.418 17.1992C142.051 16.8633 143.777 16.6953 145.598 16.6953C149.777 16.6953 151.867 18.6445 151.867 22.543C151.867 26.8477 149.922 29 146.031 29C145.203 29 144.367 28.8047 143.523 28.4141V33.4531H140.418V17.1992ZM157.328 12.2422V14.7031H154.223V12.2422H157.328ZM157.328 16.6953V29H154.223V16.6953H157.328ZM165.461 16.6953C169.195 16.6953 171.062 18.6016 171.062 22.4141C171.062 22.9219 171.027 23.4297 170.957 23.9375H162.789C162.789 25.6719 164.062 26.5391 166.609 26.5391C167.852 26.5391 169.094 26.4219 170.336 26.1875V28.6484C169.25 28.8828 167.93 29 166.375 29C161.914 29 159.684 26.9023 159.684 22.707C159.684 18.6992 161.609 16.6953 165.461 16.6953ZM162.789 21.7812H168.039V21.6875C168.039 19.9844 167.18 19.1328 165.461 19.1328C163.82 19.1328 162.93 20.0156 162.789 21.7812ZM173.395 28.4141V25.8359C174.762 26.3828 176.34 26.6562 178.129 26.6562C179.465 26.6562 180.133 26.2266 180.133 25.3672C180.133 24.5469 179.684 24.1367 178.785 24.1367H176.559C174.059 24.1367 172.809 22.9062 172.809 20.4453C172.809 17.8672 174.633 16.5781 178.281 16.5781C179.828 16.5781 181.285 16.8125 182.652 17.2812V19.8594C181.285 19.3125 179.801 19.0391 178.199 19.0391C176.52 19.0391 175.68 19.4688 175.68 20.3281C175.68 21.1484 176.168 21.5586 177.145 21.5586H179.137C181.871 21.5586 183.238 22.7891 183.238 25.25C183.238 27.8281 181.496 29.1172 178.012 29.1172C176.301 29.1172 174.762 28.8828 173.395 28.4141Z" fill="#515151"/>
<path d="M58.3545 45.5898V43.9492C59.3343 44.3138 60.4417 44.4961 61.6768 44.4961C63.1761 44.4961 63.9258 43.9948 63.9258 42.9922C63.9258 42.263 63.4655 41.8984 62.5449 41.8984H61.0137C59.013 41.8984 58.0127 40.987 58.0127 39.1641C58.0127 37.1589 59.4368 36.1562 62.2852 36.1562C63.3789 36.1562 64.4157 36.3158 65.3955 36.6348V38.2754C64.4157 37.9108 63.3789 37.7285 62.2852 37.7285C60.6445 37.7285 59.8242 38.207 59.8242 39.1641C59.8242 39.8932 60.2207 40.2578 61.0137 40.2578H62.5449C64.6732 40.2578 65.7373 41.1693 65.7373 42.9922C65.7373 45.043 64.3838 46.0684 61.6768 46.0684C60.4417 46.0684 59.3343 45.9089 58.3545 45.5898ZM72.4023 45.7949C71.8099 45.9316 71.1947 46 70.5566 46C68.0046 46 66.7285 44.7581 66.7285 42.2744C66.7285 39.973 68.0046 38.8223 70.5566 38.8223C71.1947 38.8223 71.8099 38.8906 72.4023 39.0273V40.4629C71.8099 40.3262 71.2402 40.2578 70.6934 40.2578C69.2578 40.2578 68.54 40.93 68.54 42.2744C68.54 43.8011 69.2578 44.5645 70.6934 44.5645C71.2402 44.5645 71.8099 44.4961 72.4023 44.3594V45.7949ZM73.2568 43.7646C73.2568 42.3382 74.2959 41.625 76.374 41.625C76.8617 41.625 77.3493 41.6706 77.8369 41.7617V41.2217C77.8369 40.5791 77.3743 40.2578 76.4492 40.2578C75.6654 40.2578 74.7949 40.3717 73.8379 40.5996V39.1641C74.7949 38.9362 75.6654 38.8223 76.4492 38.8223C78.582 38.8223 79.6484 39.6107 79.6484 41.1875V46H78.5957L77.9531 45.3574C77.3288 45.7858 76.6406 46 75.8887 46C74.1341 46 73.2568 45.2549 73.2568 43.7646ZM77.8369 42.9922C77.3812 42.901 76.8936 42.8555 76.374 42.8555C75.5036 42.8555 75.0684 43.1517 75.0684 43.7441C75.0684 44.3822 75.4329 44.7012 76.1621 44.7012C76.7637 44.7012 77.3219 44.5143 77.8369 44.1406V42.9922ZM81.3643 46V38.8223H82.7656L82.9912 39.875C83.6794 39.1732 84.4632 38.8223 85.3428 38.8223C87.0426 38.8223 87.8926 39.7064 87.8926 41.4746V46H86.0811V41.4746C86.0811 40.6816 85.6868 40.2852 84.8984 40.2852C84.3105 40.2852 83.7363 40.5199 83.1758 40.9893V46H81.3643ZM92.3428 43.7646C92.3428 42.3382 93.3818 41.625 95.46 41.625C95.9476 41.625 96.4352 41.6706 96.9229 41.7617V41.2217C96.9229 40.5791 96.4603 40.2578 95.5352 40.2578C94.7513 40.2578 93.8809 40.3717 92.9238 40.5996V39.1641C93.8809 38.9362 94.7513 38.8223 95.5352 38.8223C97.668 38.8223 98.7344 39.6107 98.7344 41.1875V46H97.6816L97.0391 45.3574C96.4147 45.7858 95.7266 46 94.9746 46C93.2201 46 92.3428 45.2549 92.3428 43.7646ZM96.9229 42.9922C96.4671 42.901 95.9795 42.8555 95.46 42.8555C94.5895 42.8555 94.1543 43.1517 94.1543 43.7441C94.1543 44.3822 94.5189 44.7012 95.248 44.7012C95.8496 44.7012 96.4079 44.5143 96.9229 44.1406V42.9922ZM100.45 46V38.8223H101.852L102.077 39.875C102.765 39.1732 103.549 38.8223 104.429 38.8223C106.129 38.8223 106.979 39.7064 106.979 41.4746V46H105.167V41.4746C105.167 40.6816 104.773 40.2852 103.984 40.2852C103.396 40.2852 102.822 40.5199 102.262 40.9893V46H100.45ZM113.24 40.6953C112.867 40.4492 112.397 40.3262 111.832 40.3262C110.706 40.3262 110.144 40.9574 110.144 42.2197C110.144 43.7191 110.729 44.4688 111.9 44.4688C112.374 44.4688 112.821 44.4027 113.24 44.2705V40.6953ZM115.052 45.5693C113.953 45.8564 112.88 46 111.832 46C109.512 46 108.353 44.7559 108.353 42.2676C108.353 39.9707 109.487 38.8223 111.757 38.8223C112.24 38.8223 112.734 38.9362 113.24 39.1641V36.2246H115.052V45.5693ZM124.431 40.4492C124.134 40.3398 123.713 40.2852 123.166 40.2852C121.913 40.2852 121.286 40.9756 121.286 42.3564C121.286 43.6917 121.826 44.3594 122.906 44.3594C123.426 44.3594 123.934 44.2363 124.431 43.9902V40.4492ZM126.242 45.4531C126.242 47.5495 124.982 48.5977 122.462 48.5977C121.578 48.5977 120.794 48.4837 120.11 48.2559V46.8203C120.808 47.0482 121.596 47.1621 122.476 47.1621C123.779 47.1621 124.431 46.6152 124.431 45.5215C123.893 45.7493 123.314 45.8633 122.694 45.8633C120.562 45.8633 119.495 44.6989 119.495 42.3701C119.495 40.0049 120.737 38.8223 123.221 38.8223C124.055 38.8223 125.062 38.9202 126.242 39.1162V45.4531ZM129.428 42.3838C129.428 43.8831 130.009 44.6328 131.171 44.6328C132.333 44.6328 132.914 43.8831 132.914 42.3838C132.914 40.9209 132.333 40.1895 131.171 40.1895C130.009 40.1895 129.428 40.9209 129.428 42.3838ZM127.616 42.4111C127.616 40.0049 128.801 38.8018 131.171 38.8018C133.541 38.8018 134.726 40.0049 134.726 42.4111C134.726 44.8128 133.541 46.0137 131.171 46.0137C128.81 46.0137 127.625 44.8128 127.616 42.4111Z" fill="#515151"/>
<line x1="47.3613" y1="-1.09278e-08" x2="47.3613" y2="57.7778" stroke="#61088E" stroke-width="0.5"/>
<path fill-rule="evenodd" clip-rule="evenodd" d="M7.69544 15.7154C7.69544 14.5684 7.69544 13.4212 7.69544 12.2741C7.92917 12.3171 8.11023 12.2567 8.23859 12.093C12.2499 11.1276 16.0821 9.67866 19.7353 7.74609C23.7226 9.76904 27.8565 11.3386 32.1373 12.4553C32.035 15.664 31.7634 18.8639 31.3225 22.0547C30.9963 26.5413 29.1556 30.2543 25.8005 33.1937C24.0266 34.7147 22.1556 36.1034 20.1879 37.3595C19.9466 37.4803 19.7051 37.4803 19.4637 37.3595C15.9213 35.3865 12.934 32.7603 10.5017 29.4807C9.09279 26.5 8.248 23.3606 7.96701 20.0624C7.78198 18.6188 7.69146 17.1698 7.69544 15.7154ZM19.6448 12.8175C17.2325 18.1535 14.6978 23.4361 12.0407 28.6656C12.8856 28.7864 13.7304 28.7864 14.5754 28.6656C15.0582 27.6392 15.5409 26.613 16.0238 25.5866C18.4982 25.4658 20.9724 25.4658 23.4468 25.5866C23.9297 26.613 24.4124 27.6392 24.8952 28.6656C25.7402 28.7864 26.585 28.7864 27.43 28.6656C24.8989 23.3302 22.3039 18.0474 19.6448 12.8175Z" fill="#61088E"/>
<path d="M27.4284 28.6655C24.8973 23.33 22.3023 18.0473 19.6432 12.8174C17.2309 18.1534 14.6962 23.436 12.0391 28.6655C12.884 28.7863 13.7288 28.7863 14.5738 28.6655C15.0566 27.6391 15.5393 26.6129 16.0222 25.5865C18.4966 25.4656 20.9708 25.4656 23.4453 25.5865C23.9281 26.6129 24.4108 27.6391 24.8937 28.6655C25.7386 28.7863 26.5834 28.7863 27.4284 28.6655Z" fill="white"/>
<path fill-rule="evenodd" clip-rule="evenodd" d="M3.16863 30.9293C3.18185 31.2059 3.06109 31.387 2.80653 31.4726C2.41908 31.0742 2.14751 30.5911 1.9918 30.0237C1.74865 32.3725 2.32204 34.4856 3.71179 36.3629C3.71179 36.6044 3.59103 36.7252 3.34968 36.7252C1.60001 34.85 0.815519 32.6161 0.996027 30.0237C0.968326 28.553 1.11914 27.104 1.44865 25.6768C1.89675 27.4742 2.47014 29.2251 3.16863 30.9293Z" fill="#61088E"/>
<path fill-rule="evenodd" clip-rule="evenodd" d="M37.3879 35.4574C37.1465 35.4574 37.0258 35.3366 37.0258 35.0951C37.4058 33.9789 37.6473 32.8318 37.75 31.6538C37.956 31.146 37.9862 30.6026 37.8405 30.0237C37.7476 30.2097 37.6571 30.3909 37.5689 30.5671C36.0548 33.7461 33.9425 36.4932 31.2321 38.8081C28.6974 40.4382 26.1627 42.0683 23.628 43.6984C22.1888 44.7453 21.0422 46.0432 20.188 47.5925C20.3568 48.0082 20.5076 48.4309 20.6407 48.8604C21.6582 47.6601 22.835 46.6639 24.1712 45.8719C26.5022 44.6154 28.8558 43.4079 31.2321 42.2494C33.6224 40.7329 35.6139 38.8311 37.2068 36.5441C37.379 36.8011 37.4393 37.1029 37.3879 37.4497C37.4098 41.4244 35.5993 44.1713 31.9563 45.6908C29.8208 46.0693 27.8896 46.8843 26.1627 48.1359C26.011 48.074 25.9505 47.9533 25.9817 47.7737C26.4452 47.2379 26.9883 46.7851 27.6111 46.4152C28.8854 45.7891 30.2132 45.3061 31.5942 44.9663C34.2698 43.8614 35.869 41.8993 36.3921 39.0798C34.9502 40.5837 33.351 41.8818 31.5942 42.9739C29.0595 44.3021 26.5248 45.6304 23.9901 46.9586C21.8601 48.2627 20.5324 50.1342 20.007 52.5734C19.8882 53.82 20.1598 54.9973 20.8217 56.1052C21.9334 57.1945 23.1102 57.2248 24.3522 56.1958C24.7132 55.8049 24.9547 55.3521 25.0764 54.8374C25.1972 54.4751 25.3178 54.1129 25.4385 53.7507C25.5745 56.9614 24.0658 58.1387 20.9123 57.2825C20.3923 56.823 19.9396 56.3099 19.5544 55.743C18.6249 57.5336 17.2065 58.0467 15.2997 57.2825C13.9863 56.4369 13.5035 55.2596 13.8513 53.7507C13.972 54.1129 14.0926 54.4751 14.2134 54.8374C14.7757 56.3568 15.862 56.9907 17.4723 56.7392C18.8003 55.8395 19.4037 54.5717 19.2828 52.9356C19.292 51.0224 18.5678 49.4526 17.1102 48.2265C16.4372 47.6134 15.713 47.07 14.9376 46.5964C12.3133 45.1934 9.71825 43.7444 7.1524 42.2494C5.73097 41.2192 4.46362 40.0419 3.35034 38.7176C3.2991 38.5747 3.20858 38.4539 3.07876 38.3553C2.94026 38.639 2.9705 38.8804 3.16929 39.0798C3.70973 41.8247 5.27889 43.7265 7.87661 44.7851C9.32356 45.1767 10.7115 45.7201 12.0408 46.4152C12.4242 46.6052 12.7259 46.8769 12.946 47.2303C12.9772 47.41 12.9167 47.5306 12.765 47.5925C11.1319 46.6348 9.38186 45.9405 7.5145 45.5096C4.11781 43.9998 2.3676 41.3735 2.26404 37.6308C2.20863 37.1083 2.26892 36.6253 2.44509 36.1819C3.91576 38.4682 5.78656 40.3699 8.05766 41.8872C10.5924 43.2759 13.1271 44.6643 15.6618 46.053C16.7676 46.8266 17.7935 47.7019 18.7396 48.6793C18.9384 48.2931 19.1195 47.9008 19.2828 47.502C18.4606 46.1349 17.4346 44.9275 16.2049 43.8795C14.3828 42.6006 12.5119 41.3933 10.5924 40.2571C7.25741 37.9779 4.66223 35.0497 2.80719 31.4727C3.06174 31.387 3.18251 31.2059 3.16929 30.9293C4.72813 33.5833 6.6594 35.9681 8.96291 38.0836C11.4373 39.7137 13.9116 41.3438 16.386 42.9739C17.7602 43.986 18.8765 45.2236 19.7354 46.6869C20.4728 45.3452 21.4686 44.2282 22.7228 43.3362C25.1487 41.6948 27.6231 40.1252 30.1458 38.627C34.2323 35.3114 36.9783 31.1155 38.3836 26.0391C38.9503 28.5164 38.9503 30.9917 38.3836 33.465C38.1416 34.1908 37.8097 34.8548 37.3879 35.4574ZM19.8259 48.8604C20.0729 49.4226 20.0428 49.9659 19.7354 50.4905C19.4865 50.0491 19.396 49.5662 19.4638 49.0415C19.5846 48.9812 19.7052 48.9207 19.8259 48.8604Z" fill="#61088E"/>
<path fill-rule="evenodd" clip-rule="evenodd" d="M34.7633 23.7751C34.5996 23.9035 34.5393 24.0846 34.5823 24.3185C34.5823 24.3788 34.5823 24.4393 34.5823 24.4996C34.3663 24.947 34.2757 25.4298 34.3107 25.9486C34.5164 25.5423 34.6674 25.1197 34.7633 24.6807C34.7633 24.5599 34.7633 24.4393 34.7633 24.3185C34.8841 24.3185 34.9444 24.2581 34.9444 24.1373C35.1841 22.9649 35.5159 21.8179 35.9401 20.696C36.9113 22.897 37.2734 25.1913 37.0264 27.5786C36.9068 28.1767 36.6955 28.7201 36.3928 29.2087C36.2291 29.0803 36.1688 28.8992 36.2117 28.6654C36.4462 27.2177 36.4462 25.7687 36.2117 24.3185C36.1154 23.7823 35.9946 23.722 35.8496 24.1373C34.4349 29.202 32.1113 33.7904 28.8792 37.9026C27.9676 38.845 27.0321 39.7506 26.0729 40.6194C25.8933 40.6506 25.7727 40.5901 25.7108 40.4383C26.5409 39.324 27.4159 38.2373 28.336 37.1781C28.8051 36.5393 29.1672 35.8751 29.4223 35.1858C26.8029 37.8073 23.876 40.0108 20.6414 41.7967C20.1585 41.9175 19.6758 41.9175 19.193 41.7967C16.0193 40.0717 13.1527 37.9285 10.593 35.3669C10.4723 35.4877 10.4723 35.6083 10.593 35.7291C11.3772 36.9046 12.1919 38.0518 13.0372 39.1704C13.0269 39.3713 12.9666 39.5524 12.8562 39.7138C11.7681 38.8361 10.8326 37.8097 10.0499 36.6347C7.32853 32.6988 5.33697 28.4122 4.07523 23.7751C3.54113 25.1891 3.39031 26.6381 3.6226 28.122C3.66551 28.3558 3.60522 28.537 3.44155 28.6654C3.24239 28.3435 3.0914 27.9813 2.98892 27.5786C2.69091 25.0895 3.11349 22.7349 4.25628 20.5149C4.34372 20.6866 4.37378 20.8677 4.3468 21.0583C4.31566 21.2379 4.37613 21.3586 4.52785 21.4205C4.52785 21.5413 4.52785 21.6619 4.52785 21.7828C4.56171 22.1566 4.65223 22.5188 4.79943 22.8695C4.94228 22.4688 4.91204 22.1066 4.7089 21.7828C4.7089 21.6619 4.7089 21.5413 4.7089 21.4205C4.76231 21.0157 4.70184 20.6535 4.52785 20.3338C4.12701 16.8854 4.09695 13.4441 4.43733 10.0099C9.59908 9.01296 14.5177 7.29231 19.193 4.84789C19.6758 4.72714 20.1585 4.72714 20.6414 4.84789C25.3302 7.31658 30.2488 9.09755 35.397 10.191C35.6524 14.7453 35.4412 19.2733 34.7633 23.7751ZM19.5551 6.02518C22.6058 7.41529 25.7137 8.68314 28.8792 9.82873C30.6354 10.3208 32.4158 10.6831 34.2202 10.9155C34.4553 16.3629 33.9424 21.736 32.6812 27.0353C31.9623 29.7425 30.6344 32.0971 28.6981 34.099C26.0778 36.692 23.1507 38.8654 19.9172 40.6194C15.8596 38.4519 12.3291 35.6145 9.32569 32.1067C7.48894 29.0477 6.40263 25.7272 6.06678 22.145C5.58501 18.4175 5.37372 14.6743 5.43311 10.9155C10.4766 10.22 15.1839 8.58986 19.5551 6.02518Z" fill="#61088E"/>
<path fill-rule="evenodd" clip-rule="evenodd" d="M22.3598 23.1411C20.6096 23.3825 18.8596 23.3825 17.1094 23.1411C17.9357 21.1861 18.8107 19.2541 19.7346 17.3452C20.6971 19.2372 21.5721 21.1692 22.3598 23.1411Z" fill="#61088E"/>
</svg>
