<svg width="60" height="87" viewBox="0 0 60 87" fill="none" xmlns="http://www.w3.org/2000/svg">
<path fill-rule="evenodd" clip-rule="evenodd" d="M11.4865 20.1431C11.4865 18.4308 11.4865 16.7183 11.4865 15.006C11.8354 15.0701 12.1057 14.98 12.2973 14.7356C18.2854 13.2945 24.006 11.1315 29.4595 8.24658C35.4117 11.2664 41.5827 13.6095 47.973 15.2764C47.8203 20.0663 47.4149 24.8431 46.7568 29.6063C46.2698 36.3038 43.5219 41.8465 38.5135 46.2344C35.8654 48.5051 33.0725 50.578 30.1352 52.4531C29.7749 52.6334 29.4144 52.6334 29.0541 52.4531C23.766 49.5079 19.3065 45.5874 15.6757 40.6917C13.5725 36.2421 12.3114 31.5557 11.8919 26.6322C11.6157 24.4773 11.4806 22.3143 11.4865 20.1431ZM29.3244 15.8171C25.7233 23.7827 21.9395 31.6685 17.973 39.475C19.2344 39.6554 20.4954 39.6554 21.7568 39.475C22.4776 37.9428 23.1981 36.4109 23.9189 34.8786C27.6127 34.6983 31.3062 34.6983 35 34.8786C35.7208 36.4109 36.4414 37.9428 37.1622 39.475C38.4235 39.6554 39.6846 39.6554 40.946 39.475C37.1676 31.5103 33.2938 23.6242 29.3244 15.8171Z" fill="white"/>
<path d="M40.9456 39.4748C37.1673 31.5101 33.2935 23.624 29.324 15.8169C25.7229 23.7824 21.9391 31.6682 17.9727 39.4748C19.234 39.6552 20.4951 39.6552 21.7564 39.4748C22.4773 37.9426 23.1978 36.4106 23.9186 34.8784C27.6124 34.6981 31.3059 34.6981 34.9997 34.8784C35.7205 36.4106 36.441 37.9426 37.1618 39.4748C38.4232 39.6552 39.6843 39.6552 40.9456 39.4748Z" fill="#61088E"/>
<path fill-rule="evenodd" clip-rule="evenodd" d="M4.73026 42.8546C4.74999 43.2674 4.56972 43.5378 4.18972 43.6657C3.61135 43.0709 3.20594 42.3498 2.97351 41.5027C2.61053 45.0089 3.46648 48.1634 5.54108 50.9659C5.54108 51.3263 5.36081 51.5066 5.00053 51.5066C2.38864 48.7074 1.21756 45.3726 1.48702 41.5027C1.44567 39.3072 1.67081 37.1442 2.1627 35.0137C2.83162 37.6969 3.68756 40.3106 4.73026 42.8546Z" fill="white"/>
<path fill-rule="evenodd" clip-rule="evenodd" d="M55.8117 49.6142C55.4515 49.6142 55.2712 49.4339 55.2712 49.0735C55.8385 47.4072 56.199 45.6949 56.3523 43.9363C56.6598 43.1782 56.705 42.3671 56.4874 41.503C56.3488 41.7806 56.2136 42.051 56.082 42.3141C53.8217 47.0597 50.6685 51.1605 46.6226 54.6162C42.8388 57.0496 39.055 59.483 35.2712 61.9164C33.1228 63.4791 31.4112 65.4167 30.1361 67.7295C30.388 68.35 30.6131 68.981 30.8117 69.6221C32.3307 67.8303 34.0874 66.3432 36.082 65.1609C39.5617 63.2853 43.0753 61.4827 46.6226 59.7534C50.1907 57.4895 53.1636 54.6505 55.5415 51.2365C55.7985 51.6202 55.8885 52.0706 55.8117 52.5884C55.8444 58.5218 53.1417 62.6223 47.7036 64.8905C44.5158 65.4556 41.6328 66.6723 39.055 68.5406C38.8285 68.4481 38.7382 68.268 38.7847 67.9998C39.4766 67.2001 40.2874 66.5241 41.2171 65.972C43.1193 65.0373 45.1015 64.3162 47.1631 63.809C51.1571 62.1597 53.5444 59.2307 54.3253 55.0218C52.1728 57.2667 49.7855 59.2045 47.1631 60.8349C43.3793 62.8175 39.5955 64.8005 35.8117 66.7831C32.632 68.7298 30.6501 71.5236 29.8658 75.1648C29.6885 77.0258 30.0939 78.7832 31.082 80.4371C32.7415 82.0632 34.4982 82.1083 36.3523 80.5723C36.8912 79.9888 37.2517 79.3129 37.4334 78.5445C37.6136 78.0037 37.7936 77.463 37.9739 76.9222C38.1769 81.7152 35.9247 83.4726 31.2171 82.1946C30.4409 81.5086 29.7653 80.7427 29.1901 79.8964C27.8026 82.5693 25.6853 83.3353 22.8388 82.1946C20.8782 80.9322 20.1574 79.1747 20.6766 76.9222C20.8569 77.463 21.0369 78.0037 21.2171 78.5445C22.0566 80.8127 23.6782 81.759 26.082 81.3834C28.0644 80.0405 28.9653 78.1479 28.7847 75.7056C28.7985 72.8496 27.7174 70.5062 25.5415 68.6758C24.5369 67.7605 23.4558 66.9494 22.2982 66.2424C18.3807 64.1481 14.5069 61.985 10.6766 59.7534C8.55471 58.2155 6.66282 56.458 5.00093 54.481C4.92444 54.2677 4.78931 54.0874 4.59552 53.9403C4.38877 54.3637 4.4339 54.7241 4.73066 55.0218C5.53742 59.1193 7.87985 61.9583 11.7577 63.5386C13.9177 64.1232 15.9896 64.9343 17.9739 65.972C18.5463 66.2556 18.9966 66.6612 19.3253 67.1887C19.3717 67.4569 19.2815 67.637 19.055 67.7295C16.6171 66.2997 14.0047 65.2634 11.2171 64.6201C6.14661 62.3663 3.5339 58.4458 3.37931 52.8588C3.29661 52.0787 3.38661 51.3576 3.64958 50.6958C5.84498 54.1087 8.63769 56.9477 12.028 59.2126C15.8117 61.2856 19.5955 63.3583 23.3793 65.4313C25.0301 66.586 26.5615 67.8928 27.9739 69.3517C28.2707 68.7753 28.5409 68.1896 28.7847 67.5943C27.5574 65.5535 26.0258 63.7511 24.1901 62.1867C21.4701 60.2776 18.6771 58.4753 15.8117 56.7792C10.8334 53.3768 6.95931 49.0056 4.19012 43.666C4.57012 43.5381 4.75039 43.2677 4.73066 42.8548C7.05769 46.8167 9.94066 50.3767 13.3793 53.5347C17.0731 55.9681 20.7666 58.4015 24.4604 60.8349C26.5117 62.3457 28.1782 64.1932 29.4604 66.3776C30.5612 64.3746 32.0477 62.7072 33.9198 61.3756C37.5412 58.9255 41.235 56.5824 45.0009 54.3458C51.1012 49.3963 55.2004 43.1328 57.2982 35.5547C58.1442 39.2529 58.1442 42.9479 57.2982 46.6401C56.9369 47.7235 56.4415 48.7147 55.8117 49.6142ZM29.5955 69.6221C29.9642 70.4613 29.9193 71.2725 29.4604 72.0555C29.0888 71.3966 28.9536 70.6757 29.055 69.8925C29.2353 69.8024 29.4153 69.7121 29.5955 69.6221Z" fill="white"/>
<path fill-rule="evenodd" clip-rule="evenodd" d="M51.8946 32.1747C51.6503 32.3664 51.5603 32.6367 51.6244 32.9858C51.6244 33.0758 51.6244 33.1661 51.6244 33.2562C51.3019 33.924 51.1668 34.6448 51.219 35.4192C51.526 34.8127 51.7514 34.1819 51.8946 33.5265C51.8946 33.3462 51.8946 33.1661 51.8946 32.9858C52.0749 32.9858 52.1649 32.8958 52.1649 32.7154C52.5228 30.9653 53.0182 29.253 53.6514 27.5783C55.1011 30.8639 55.6417 34.2887 55.273 37.8526C55.0944 38.7453 54.779 39.5565 54.3271 40.2859C54.0827 40.0942 53.9927 39.8239 54.0568 39.4748C54.4068 37.3137 54.4068 35.1507 54.0568 32.9858C53.913 32.1855 53.7327 32.0954 53.5163 32.7154C51.4044 40.2759 47.9357 47.1254 43.1109 53.264C41.75 54.6708 40.3536 56.0227 38.9217 57.3196C38.6536 57.3662 38.4736 57.2758 38.3811 57.0493C39.6203 55.3859 40.9265 53.7637 42.3 52.1825C43.0003 51.2289 43.5409 50.2374 43.9217 49.2084C40.0114 53.1218 35.6422 56.4112 30.8136 59.0771C30.0927 59.2574 29.3722 59.2574 28.6514 59.0771C23.9138 56.502 19.6346 53.3027 15.8136 49.4787C15.6333 49.6591 15.6333 49.8391 15.8136 50.0195C16.9841 51.7742 18.2003 53.4868 19.4622 55.1566C19.4468 55.4565 19.3568 55.7269 19.1919 55.9678C17.5676 54.6575 16.1711 53.1253 15.0027 51.3714C10.9403 45.4958 7.96734 39.0968 6.08383 32.1747C5.28653 34.2855 5.0614 36.4485 5.40816 38.6637C5.47221 39.0127 5.38221 39.2831 5.13789 39.4748C4.84059 38.9944 4.61518 38.4536 4.46221 37.8526C4.01735 34.1368 4.64816 30.6219 6.3541 27.3079C6.48464 27.5642 6.52951 27.8346 6.48924 28.119C6.44275 28.3872 6.53302 28.5673 6.75951 28.6598C6.75951 28.8401 6.75951 29.0202 6.75951 29.2005C6.81005 29.7586 6.94518 30.2993 7.16491 30.8228C7.37816 30.2247 7.33302 29.684 7.02978 29.2005C7.02978 29.0202 7.02978 28.8401 7.02978 28.6598C7.10951 28.0555 7.01924 27.5147 6.75951 27.0375C6.16113 21.8898 6.11626 16.7527 6.62437 11.6261C14.3298 10.1379 21.6722 7.56935 28.6514 3.92035C29.3722 3.74009 30.0927 3.74009 30.8136 3.92035C37.813 7.60558 45.1555 10.2642 52.8406 11.8964C53.2219 18.6951 52.9065 25.4545 51.8946 32.1747ZM29.1919 5.6778C33.746 7.75293 38.3855 9.64557 43.1109 11.3557C45.7325 12.0903 48.3903 12.6311 51.0838 12.978C51.4349 21.1098 50.6692 29.1308 48.7865 37.0414C47.7133 41.0827 45.7311 44.5976 42.8406 47.5861C38.929 51.4568 34.5595 54.7013 29.7325 57.3196C23.6755 54.0841 18.4052 49.8483 13.9217 44.612C11.1798 40.0456 9.55816 35.0888 9.0568 29.7413C8.33762 24.1769 8.02221 18.5891 8.11086 12.978C15.6398 11.9397 22.6668 9.50632 29.1919 5.6778Z" fill="white"/>
<path fill-rule="evenodd" clip-rule="evenodd" d="M33.3789 31.2282C30.7662 31.5886 28.1537 31.5886 25.541 31.2282C26.7745 28.3098 28.0807 25.4257 29.4599 22.5762C30.8967 25.4005 32.2029 28.2846 33.3789 31.2282Z" fill="white"/>
</svg>
