<svg width="50" height="50" viewBox="0 0 50 50" fill="none" xmlns="http://www.w3.org/2000/svg">
<path d="M26.4579 0H46.4287C47.3759 0 48.2842 0.376262 48.954 1.04601C49.6237 1.71576 50 2.62414 50 3.57131V23.5421C50.0007 25.4096 49.27 27.2031 47.9644 28.5383L29.5293 47.3841C28.7002 48.2134 27.7158 48.8713 26.6324 49.3202C25.549 49.769 24.3879 50 23.2152 50C22.0425 50 20.8813 49.769 19.7979 49.3202C18.7146 48.8713 17.7302 48.2134 16.9011 47.3841L2.61586 33.0989C1.78655 32.2698 1.12868 31.2854 0.679849 30.2021C0.231014 29.1187 0 27.9575 0 26.7848C0 25.6121 0.231014 24.451 0.679849 23.3676C1.12868 22.2842 1.78655 21.2998 2.61586 20.4707L2.64443 20.4422L21.4652 2.03565C22.7987 0.73176 24.5893 0.00116499 26.4544 0H26.4579ZM37.5004 17.8565C38.9212 17.8565 40.2837 17.2922 41.2884 16.2875C42.293 15.2829 42.8574 13.9203 42.8574 12.4996C42.8574 11.0788 42.293 9.71626 41.2884 8.71164C40.2837 7.70701 38.9212 7.14262 37.5004 7.14262C36.0797 7.14262 34.7171 7.70701 33.7125 8.71164C32.7078 9.71626 32.1435 11.0788 32.1435 12.4996C32.1435 13.9203 32.7078 15.2829 33.7125 16.2875C34.7171 17.2922 36.0797 17.8565 37.5004 17.8565Z" fill="white"/>
</svg>
