<svg width="40" height="38" viewBox="0 0 40 38" fill="none" xmlns="http://www.w3.org/2000/svg">
<path fill-rule="evenodd" clip-rule="evenodd" d="M18.3817 0C16.6104 0 15.1475 1.38175 15.1475 3.05465V4.18293C14.2058 4.45967 13.2929 4.81642 12.4195 5.24896L11.5763 4.45257C10.3233 3.26925 8.25402 3.26925 7.00108 4.45257L4.71437 6.61224C3.46148 7.79556 3.46148 9.74991 4.71437 10.9332L5.55765 11.7296C5.09966 12.5545 4.72198 13.4166 4.42886 14.3059H3.23422C1.4629 14.3059 0 15.6877 0 17.3605V20.4172C0 22.0901 1.4629 23.4719 3.23422 23.4719H4.42886C4.72189 24.3612 5.09966 25.2233 5.55765 26.0481L4.71437 26.8446C3.46148 28.0279 3.46148 29.9823 4.71437 31.1657L7.00108 33.3252C8.25402 34.5085 10.3233 34.5085 11.5763 33.3252L12.4195 32.5288C13.2929 32.9614 14.2058 33.3181 15.1475 33.5949V34.7232C15.1475 36.396 16.6104 37.7778 18.3817 37.7778H21.6183C23.3896 37.7778 24.8525 36.396 24.8525 34.7232V33.5949C25.7941 33.3182 26.707 32.9614 27.5804 32.5288L28.4236 33.3252C29.6766 34.5085 31.746 34.5085 32.9989 33.3252L35.2855 31.1657C36.5385 29.9823 36.5385 28.0279 35.2855 26.8446L34.4423 26.0481C34.9003 25.2233 35.278 24.3612 35.5711 23.4719H36.7658C38.5371 23.4719 40 22.0901 40 20.4172V17.3605C40 15.6877 38.5371 14.3059 36.7658 14.3059H35.5781C35.2842 13.4152 34.9055 12.5519 34.4463 11.7259L35.2855 10.9332C36.5385 9.74987 36.5385 7.79556 35.2855 6.61224L32.9989 4.45257C31.746 3.26925 29.6766 3.26925 28.4236 4.45257L27.5844 5.24522C26.7098 4.8115 25.7957 4.45379 24.8525 4.17625V3.05465C24.8525 1.38175 23.3896 0 21.6183 0H18.3817ZM18.3817 2.22228H21.6183C22.1283 2.22228 22.4996 2.57293 22.4996 3.05465V5.01526C22.4996 5.26298 22.5873 5.50359 22.7487 5.69887C22.9101 5.89416 23.1359 6.03291 23.3904 6.0931C24.725 6.40848 26.003 6.90872 27.1829 7.57711C27.4079 7.70454 27.6715 7.7573 27.9319 7.72702C28.1922 7.69673 28.4344 7.58514 28.6199 7.40997L30.0875 6.02397C30.4476 5.68382 30.975 5.68382 31.3351 6.02397L33.6218 8.18355C33.9819 8.52371 33.9819 9.02181 33.6218 9.36197L32.1543 10.7479C31.9688 10.9231 31.8507 11.1518 31.8186 11.3977C31.7866 11.6436 31.8424 11.8926 31.9773 12.1051C32.685 13.2194 33.2145 14.4264 33.5486 15.6869C33.6123 15.9272 33.7592 16.1405 33.966 16.293C34.1728 16.4454 34.4275 16.5282 34.6898 16.5282H36.7658C37.2758 16.5282 37.6472 16.8789 37.6472 17.3606V20.4173C37.6472 20.8989 37.2759 21.2497 36.7658 21.2497H34.6825C34.4202 21.2497 34.1654 21.3325 33.9586 21.485C33.7518 21.6375 33.6049 21.8509 33.5412 22.0913C33.2077 23.3505 32.6795 24.5565 31.9732 25.67C31.8385 25.8825 31.7828 26.1313 31.815 26.3771C31.8471 26.6229 31.9653 26.8515 32.1507 27.0266L33.6218 28.416C33.9819 28.7562 33.9819 29.2542 33.6218 29.5943L31.3351 31.754C30.9749 32.0941 30.4476 32.0941 30.0875 31.754L28.6163 30.3645C28.4309 30.1894 28.1888 30.0779 27.9286 30.0475C27.6684 30.0171 27.4049 30.0697 27.1799 30.197C26.0009 30.8639 24.724 31.363 23.3907 31.6778C23.1362 31.738 22.9102 31.8767 22.7488 32.072C22.5873 32.2673 22.4996 32.508 22.4996 32.7558V34.7232C22.4996 35.2048 22.1283 35.5555 21.6183 35.5555H18.3817C17.8718 35.5555 17.5004 35.2049 17.5004 34.7232V32.7558C17.5004 32.508 17.4127 32.2673 17.2512 32.072C17.0898 31.8767 16.8638 31.738 16.6093 31.6778C15.276 31.3629 13.9991 30.8639 12.8201 30.197C12.5951 30.0697 12.3316 30.0171 12.0714 30.0475C11.8112 30.0779 11.5691 30.1894 11.3837 30.3645L9.91253 31.754C9.55236 32.0941 9.025 32.0941 8.66483 31.754L6.37821 29.5943C6.01804 29.2542 6.01804 28.7561 6.37821 28.416L7.84939 27.0266C8.03479 26.8515 8.15294 26.6229 8.18508 26.3771C8.21722 26.1313 8.16152 25.8825 8.0268 25.67C7.32056 24.5565 6.79227 23.3505 6.45892 22.0913C6.39526 21.8509 6.24837 21.6375 6.04157 21.485C5.83478 21.3325 5.57995 21.2497 5.31759 21.2497H3.23431C2.72438 21.2497 2.35301 20.899 2.35301 20.4173V17.3606C2.35301 16.879 2.72429 16.5282 3.23431 16.5282H5.31759C5.57995 16.5282 5.83478 16.4454 6.04157 16.2929C6.24837 16.1404 6.39526 15.927 6.45892 15.6866C6.79241 14.4274 7.32056 13.2215 8.0268 12.108C8.16153 11.8955 8.21724 11.6467 8.1851 11.4009C8.15295 11.1551 8.0348 10.9265 7.84939 10.7514L6.37821 9.36197C6.01804 9.02181 6.01804 8.52371 6.37821 8.18355L8.66483 6.02397C9.025 5.68382 9.55236 5.68382 9.91253 6.02397L11.3837 7.41341C11.5691 7.58851 11.8112 7.7001 12.0714 7.73045C12.3316 7.76081 12.5951 7.7082 12.8201 7.58097C13.9991 6.91397 15.276 6.41503 16.6093 6.10015C16.8638 6.04002 17.0898 5.90128 17.2512 5.70597C17.4127 5.51067 17.5004 5.27001 17.5004 5.02223V3.05474C17.5004 2.5731 17.8717 2.22228 18.3817 2.22228ZM20 9.38091C14.4539 9.38091 9.93271 13.651 9.93271 18.8889C9.93271 24.1269 14.4539 28.3969 20 28.3969C25.5461 28.3969 30.0673 24.1269 30.0673 18.8889C30.0673 13.651 25.5461 9.38091 20 9.38091ZM20 11.6031C24.2745 11.6031 27.7144 14.852 27.7144 18.8889C27.7144 22.9259 24.2745 26.1746 20 26.1746C15.7255 26.1746 12.2856 22.9259 12.2856 18.8889C12.2856 14.852 15.7255 11.6031 20 11.6031Z" fill="fill-current"/>
</svg>
